<!DOCTYPE svg PUBLIC "-//W3C//DTD SVG 1.1//EN" "http://www.w3.org/Graphics/SVG/1.1/DTD/svg11.dtd">
<!-- Uploaded to: SVG Repo, www.svgrepo.com, Transformed by: SVG Repo Mixer Tools -->
<svg xmlns="http://www.w3.org/2000/svg" xmlns:xlink="http://www.w3.org/1999/xlink" version="1.1" id="Capa_1" viewBox="0 0 470.002 470.002" xml:space="preserve" width="100px" height="100px" fill="#000000">
<g id="SVGRepo_bgCarrier" stroke-width="0"/>
<g id="SVGRepo_tracerCarrier" stroke-linecap="round" stroke-linejoin="round"/>
<g id="SVGRepo_iconCarrier"> <g> <path style="fill:#99D9FF;" d="M310.001,140.001c8.284,0,15-6.716,15-15c0-8.284,0-25,0-25h-30c0,0,0,16.716,0,25 C295.001,133.285,301.717,140.001,310.001,140.001z"/> <path style="fill:#CCECFF;" d="M160.001,140.001c8.284,0,15-6.716,15-15c0-8.284,0-25,0-25h-30c0,0,0,16.716,0,25 C145.001,133.285,151.717,140.001,160.001,140.001z"/> <path style="fill:#668A30;" d="M235.001,80.001c-11.046,0-20,8.954-20,20c0,11.046,0,80,0,80h40c0,0,0-68.954,0-80 C255.001,88.955,246.047,80.001,235.001,80.001z"/> <polygon style="fill:#FD7555;" points="30.001,280.001 30.001,310.001 64.349,310.001 65.653,280.001 "/> <polygon style="fill:#EF431D;" points="162.503,280.001 65.653,280.001 64.349,310.001 162.503,310.001 "/> <polygon style="fill:#FD7555;" points="440.001,280.001 440.001,310.001 405.653,310.001 404.349,280.001 "/> <polygon style="fill:#EF431D;" points="307.499,280.001 404.349,280.001 405.653,310.001 307.499,310.001 "/> <path style="fill:#FDFA7B;" d="M98.697,210.001l-2.595,59.683l253.603,133.495c7.44,3.741,16.076,6.822,30.297,6.822l-8.696-200 H98.697z"/> <path style="fill:#FEFDCA;" d="M96.088,270.001l-6.087,140c36.251,0,36.251-20,72.502-20s36.251,20,72.502,20 c36.249,0,36.249-20,72.499-20c22.028,0,30.675,7.383,42.2,13.178l-5.79-133.178H96.088z"/> <polygon style="fill:#FFFFFF;" points="380.001,180.001 90.001,180.001 87.392,240.001 382.609,240.001 "/> <path d="M463.614,122.584c-4.102-0.613-7.916,2.208-8.53,6.305l-21.542,143.612H381.53l-1.087-25h2.166 c2.046,0,4.002-0.836,5.417-2.313c1.415-1.478,2.164-3.469,2.076-5.513l-2.608-60c-0.175-4.011-3.478-7.174-7.493-7.174h-62.5 v-26.29c8.729-3.096,15-11.433,15-21.21v-25c0-4.143-3.358-7.5-7.5-7.5h-30c-4.142,0-7.5,3.357-7.5,7.5v25 c0,9.777,6.271,18.114,15,21.21v26.29h-40v-72.5c0-12.563-8.472-23.178-20-26.452V30.001c0-4.143-3.358-7.5-7.5-7.5 s-7.5,3.357-7.5,7.5v43.548c-11.528,3.274-20,13.889-20,26.452v72.5h-40v-26.29c8.729-3.096,15-11.433,15-21.21v-25 c0-4.143-3.358-7.5-7.5-7.5h-30c-4.142,0-7.5,3.357-7.5,7.5v25c0,9.777,6.271,18.114,15,21.21v26.29h-62.5 c-4.016,0-7.318,3.163-7.493,7.174l-2.608,60c-0.088,2.044,0.661,4.035,2.076,5.513c1.415,1.478,3.372,2.313,5.417,2.313h2.167 l-1.087,25H36.46L14.918,128.889c-0.615-4.097-4.427-6.921-8.53-6.305c-4.096,0.614-6.918,4.434-6.304,8.529l22.417,149.447v159.44 c0,4.143,3.358,7.5,7.5,7.5s7.5-3.357,7.5-7.5v-122.5h49.015l-4.008,92.174c-0.088,2.044,0.661,4.035,2.076,5.513 c1.415,1.478,3.372,2.313,5.417,2.313c9.267,0,16.484-1.248,22.5-3.087v25.587c0,4.143,3.358,7.5,7.5,7.5s7.5-3.357,7.5-7.5 v-32.133c0.802-0.436,1.595-0.871,2.374-1.301c7.329-4.043,13.845-7.619,25.128-8.715v42.149c0,4.143,3.358,7.5,7.5,7.5 s7.5-3.357,7.5-7.5v-42.149c11.284,1.096,17.799,4.672,25.128,8.716c9.289,5.124,19.817,10.933,39.874,10.933 c20.057,0,30.584-5.809,39.873-10.934c7.327-4.042,13.842-7.618,25.121-8.714v42.148c0,4.143,3.358,7.5,7.5,7.5s7.5-3.357,7.5-7.5 v-42.149c11.285,1.095,17.801,4.672,25.131,8.716c0.778,0.429,1.57,0.864,2.371,1.299v32.135c0,4.143,3.358,7.5,7.5,7.5 s7.5-3.357,7.5-7.5v-25.588c6.016,1.84,13.233,3.088,22.5,3.088c2.046,0,4.002-0.836,5.417-2.313 c1.415-1.478,2.164-3.469,2.076-5.513l-4.007-92.174h49.014v122.5c0,4.143,3.358,7.5,7.5,7.5s7.5-3.357,7.5-7.5v-159.44 l22.417-149.447C470.532,127.018,467.71,123.198,463.614,122.584z M302.501,107.501h15v17.5c0,4.136-3.364,7.5-7.5,7.5 s-7.5-3.364-7.5-7.5V107.501z M152.501,107.501h15v17.5c0,4.136-3.364,7.5-7.5,7.5s-7.5-3.364-7.5-7.5V107.501z M222.501,100.001 c0-6.893,5.607-12.5,12.5-12.5s12.5,5.607,12.5,12.5v72.5h-25V100.001z M37.501,302.501v-15H87.82l-0.652,15H37.501z M347.376,393.435c-9.288-5.125-19.815-10.934-39.872-10.934c-20.06,0.002-30.585,5.809-39.873,10.934 c-8.818,4.864-16.434,9.066-32.626,9.066c-16.194,0-23.81-4.202-32.628-9.066c-9.289-5.125-19.817-10.934-39.875-10.934 c-20.057,0-30.585,5.809-39.874,10.934c-2.089,1.152-4.112,2.265-6.197,3.296c-5.161,2.552-10.696,4.588-18.582,5.395 l6.723-154.624h208.011c4.142,0,7.5-3.357,7.5-7.5s-3.358-7.5-7.5-7.5H95.226l1.957-45H372.82l1.957,45h-32.192 c-4.142,0-7.5,3.357-7.5,7.5s3.358,7.5,7.5,7.5h22.845l6.723,154.624C361.074,400.992,354.632,397.437,347.376,393.435z M382.835,302.501l-0.652-15h50.319v15H382.835z"/> </g> </g>
</svg>