<!DOCTYPE svg PUBLIC "-//W3C//DTD SVG 1.1//EN" "http://www.w3.org/Graphics/SVG/1.1/DTD/svg11.dtd">
<!-- Uploaded to: SVG Repo, www.svgrepo.com, Transformed by: SVG Repo Mixer Tools -->
<svg version="1.1" id="Layer_1" xmlns="http://www.w3.org/2000/svg" xmlns:xlink="http://www.w3.org/1999/xlink" viewBox="0 0 512.001 512.001" xml:space="preserve" width="110px" height="110px" fill="#000000">
<g id="SVGRepo_bgCarrier" stroke-width="0"/>
<g id="SVGRepo_tracerCarrier" stroke-linecap="round" stroke-linejoin="round"/>
<g id="SVGRepo_iconCarrier"> <path style="fill:#027ACD;" d="M479.362,164.573h-8.458l-20.899,78.489l5.226,56.556v161.182h-19.654v31.347h50.999V329.978 c11.333-3.154,19.652-13.541,19.652-25.879v-112.66C506.228,176.602,494.199,164.573,479.362,164.573z"/> <polygon style="fill:#F17A00;" points="270.013,19.857 135.007,19.857 114.107,251.068 135.007,476.473 270.013,476.473 "/> <rect y="19.855" style="fill:#FF9500;" width="135.011" height="456.62"/> <polygon style="fill:#FFC222;" points="379.703,197.296 327.057,197.296 311.384,207.745 290.485,270.521 311.384,333.934 379.703,333.934 "/> <polygon style="fill:#FEDF77;" points="243.064,197.296 243.064,333.934 311.384,333.934 311.384,207.745 295.71,197.296 "/> <rect x="295.706" y="197.299" style="fill:#FF9500;" width="31.347" height="50.249"/> <rect x="38.228" y="231.123" style="fill:#FEDF77;" width="31.347" height="68.995"/> <path style="fill:#3EAFF5;" d="M462.444,164.573c-8.853,0-17.84-1.045-26.597,4.937l-118.201,99.21l20.153,24.011l97.777-82.068 v93.437c0,14.839,12.029,26.866,26.866,26.866h8.458V164.573H462.444z"/> <path style="fill:#FEE3B5;" d="M460.453,100.567l10.45,70.602c22.697,0,41.098-18.4,41.098-41.098v-15.919L460.453,100.567z"/> <path style="fill:#FFF3D8;" d="M429.804,114.151v15.919c0,22.697,18.4,41.098,41.098,41.098v-70.602L429.804,114.151z"/> <polygon style="fill:#027ACD;" points="512,65.539 470.902,65.539 450.003,91.953 470.902,114.151 512,114.151 "/> <polygon style="fill:#3EAFF5;" points="429.804,65.539 429.804,82.805 391.742,82.805 391.742,114.151 470.902,114.151 470.902,65.539 "/> </g>
</svg>