<?xml version="1.0" encoding="iso-8859-1"?>
<!-- Uploaded to: SVG Repo, www.svgrepo.com, Generator: SVG Repo Mixer Tools -->
<svg version="1.1" id="Layer_1" xmlns="http://www.w3.org/2000/svg" xmlns:xlink="http://www.w3.org/1999/xlink" 
	 viewBox="0 0 512.003 512.003" xml:space="preserve">
<rect x="94.066" y="94.865" style="fill:#008E8E;" width="323.872" height="417.138"/>
<rect x="94.066" y="94.865" style="fill:#0CA7A6;" width="161.931" height="417.138"/>
<rect x="127.771" y="201.457" style="fill:#52E6F8;" width="256.472" height="83.39"/>
<g>
	<rect x="127.771" y="318.552" style="fill:#FFF1D8;" width="63.021" height="63.021"/>
	<rect x="224.496" y="318.552" style="fill:#FFF1D8;" width="63.021" height="63.021"/>
	<rect x="321.222" y="318.552" style="fill:#FFF1D8;" width="63.021" height="63.021"/>
	<rect x="127.771" y="415.277" style="fill:#FFF1D8;" width="63.021" height="63.021"/>
	<rect x="224.496" y="415.277" style="fill:#FFF1D8;" width="63.021" height="63.021"/>
	<rect x="321.222" y="415.277" style="fill:#FFF1D8;" width="63.021" height="63.021"/>
</g>
<rect x="127.771" y="201.457" style="fill:#6FF7FF;" width="128.236" height="83.39"/>
<polygon style="fill:#FEDFB5;" points="341.494,26.536 298.75,0 256.005,26.536 213.26,0 170.516,26.536 127.772,0 127.772,154.353 
	384.239,154.353 384.239,0 "/>
<polygon style="fill:#FFF1D8;" points="256.005,26.536 256.005,26.536 213.26,0 170.516,26.536 127.772,0 127.772,154.353 
	256.005,154.353 "/>
</svg>